<?xml version="1.0" standalone="no"?><!DOCTYPE svg PUBLIC "-//W3C//DTD SVG 1.1//EN" "http://www.w3.org/Graphics/SVG/1.1/DTD/svg11.dtd"><svg t="1566541665485" class="icon" viewBox="0 0 1024 1024" version="1.1" xmlns="http://www.w3.org/2000/svg" p-id="1147" xmlns:xlink="http://www.w3.org/1999/xlink" width="200" height="200"><defs><style type="text/css"></style></defs><path d="M671.744 512 512 512l0-223.744c0-17.92-14.336-32.256-31.744-32.256s-31.744 14.336-31.744 32.256l0 256c0 17.92 14.336 31.744 31.744 31.744l192 0c17.92 0 32.256-14.336 32.256-31.744S689.664 512 671.744 512z" fill="#b3b3b3" p-id="1148"></path><path d="M512.1 958.16c-96.2 0-189.3-30.8-267.7-89.5-95.7-71.7-157.9-176.5-174.8-294.9-17-118.5 13.2-236.4 84.9-332.2 148.1-197.8 429.4-238.1 627.1-90.1 82.9 62.1 142 151.6 166.6 252 4.2 17.2-6.3 34.5-23.5 38.7-17.2 4.1-34.5-6.3-38.7-23.5-21-86-71.7-162.8-142.8-216-169.4-126.9-410.6-92.3-537.5 77.2-61.5 82.1-87.3 183.2-72.7 284.7 14.6 101.5 67.8 191.3 149.9 252.7 169.5 127 410.7 92.4 537.6-77.1 33.2-44.4 56-94.1 67.6-147.8 3.8-17.3 20.9-28.3 38-24.5 17.3 3.7 28.3 20.8 24.5 38-13.7 62.8-40.2 120.8-79 172.7-71.7 95.7-176.5 157.9-295 174.8C555.1 956.66 533.5 958.16 512.1 958.16z" fill="#b3b3b3" p-id="1149"></path></svg>